<svg width="386" height="40" viewBox="0 0 386 40" fill="none" xmlns="http://www.w3.org/2000/svg">
<path fill-rule="evenodd" clip-rule="evenodd" d="M385.068 39.3333H376.417L368.43 24.3999H359.512V39.3333H351.926V1.33328H370.826C379.478 1.33328 383.604 4.79995 383.604 12.7999C383.604 18.6666 380.942 22.3999 376.283 23.4666L385.068 39.3333ZM368.83 8.13328H359.512V17.7333H368.83C373.355 17.7333 375.618 16.7999 375.618 12.9333C375.618 9.06661 373.355 8.13328 368.83 8.13328ZM321.312 36C317.585 32.9333 315.721 27.8667 315.721 21.0666C315.721 7.59995 321.179 1.33328 332.892 1.33328H345.67V7.99995H333.158C327.701 7.99995 324.906 10.7999 324.506 16.7999H345.67V23.4666H324.506C324.506 30.2667 327.168 32.8 333.158 32.8H345.67V39.4667H332.759C328.233 39.3333 324.906 38.9333 321.312 36ZM303.077 39.3333H295.223V7.99995H283.51V1.33328H314.923V7.99995H303.077V39.3333ZM281.115 39.3333L277.787 30.2667H261.948L258.753 39.3333H250.634L266.074 1.33328H274.193L289.633 39.3333H281.115ZM269.801 8.93328L264.477 23.5999H275.258L269.801 8.93328ZM234.928 39.3333L227.208 10.9333L220.419 39.3333H211.102L198.99 1.33328H207.242L215.628 30.5333L222.682 1.33328H231.733L239.852 30.5333L247.706 1.33328H255.559L244.378 39.3333H234.928ZM170.239 36C166.512 32.9333 164.649 27.8667 164.649 21.0666C164.649 7.59995 170.106 1.33328 181.819 1.33328H194.597V7.99995H182.086C176.628 7.99995 173.833 10.7999 173.434 16.7999H194.464V23.4666H173.301C173.301 30.2667 175.963 32.8 181.952 32.8H194.464V39.4667H181.553C177.161 39.3333 173.7 38.9333 170.239 36ZM132.039 36C128.312 32.9333 126.448 27.8667 126.448 21.0666C126.448 7.59995 131.906 1.33328 143.619 1.33328H160.123V7.86661H143.619C137.496 7.86661 134.967 11.9999 134.967 20.6666C134.967 29.3333 137.363 32.5333 143.619 32.5333H152.27V23.5999H142.021V16.9333H160.123V39.4667H143.619C139.093 39.3333 135.632 39.0667 131.906 36H132.039ZM105.684 39.3333H88.78V1.33328H105.418C117.131 1.33328 122.588 7.59995 122.588 21.0666C122.588 28 120.725 32.9333 116.998 36C113.271 39.0667 110.077 39.3333 105.551 39.3333H105.684ZM105.285 7.86661H96.3669V32.6667H105.285C112.073 32.6667 114.203 29.6 114.203 20.2666C114.203 10.9333 112.073 7.86661 105.285 7.86661ZM74.8041 1.19995H82.7903V39.2H74.8041V1.19995ZM62.1593 39.2L54.1731 24.2666H45.1221V39.2H37.5352V1.19995H56.4359C65.0876 1.19995 69.2138 4.66661 69.2138 12.6666C69.2138 18.5333 66.5517 22.2666 61.8931 23.3333L70.9441 39.2H62.1593ZM54.5724 7.99995H45.2552V17.5999H54.5724C59.0979 17.5999 61.3607 16.6666 61.3607 12.7999C61.3607 8.93328 59.0979 8.13328 54.4393 8.13328L54.5724 7.99995ZM19.9655 39.2H0V1.19995H18.6345C22.8938 1.19995 25.9552 1.59995 27.9517 2.93328C30.7219 5.04495 32.2327 8.41995 31.9615 11.8966C31.6953 15.3733 29.6821 18.4749 26.6207 20.1333C30.1612 21.4833 32.3857 25.0166 32.0779 28.8C32.211 36.1333 28.2179 39.3333 19.9655 39.3333V39.2ZM18.7676 7.99995H7.5869V16.7999H18.7676C22.2283 16.7999 23.8255 15.4666 23.8255 12.3999C23.8255 9.33328 22.2283 8.13328 18.7676 8.13328V7.99995ZM18.9007 23.4666H7.5869V32.4H18.9007C22.3614 32.4 23.9586 31.0667 23.9586 28C23.9586 24.9333 22.2283 23.5999 18.9007 23.5999V23.4666Z" fill="#FEFEFE"/>
</svg>
