<svg width="160" height="40" viewBox="0 0 160 40" fill="none" xmlns="http://www.w3.org/2000/svg">
<path fill-rule="evenodd" clip-rule="evenodd" d="M102.662 28.3061C97.9311 28.3061 94.0811 24.2812 94.0811 19.325C94.0811 14.3687 97.9311 10.3375 102.662 10.3375C107.394 10.3375 111.25 14.375 111.25 19.325C111.25 24.275 107.4 28.3061 102.675 28.3061H102.662ZM102.662 7.68125C96.4561 7.68125 91.4125 12.9062 91.4125 19.3375C91.4125 25.7687 96.4622 30.9936 102.662 30.9936C108.862 30.9936 113.912 25.7625 113.912 19.3375C113.912 12.9125 108.862 7.68125 102.662 7.68125ZM79.4625 8.30625H82.325L71.75 35.55C71.2461 36.8639 70.3544 37.9933 69.1936 38.7881C68.0325 39.5831 66.6569 40.0056 65.25 40H63.75V37.325H65.275C66.1431 37.3283 66.9917 37.0678 67.7083 36.5778C68.425 36.0878 68.9756 35.3914 69.2875 34.5811L70.9186 30.3811L62.325 8.3125H65.1875L72.325 26.6937L79.4625 8.30625ZM160 30.2936H156.394L146.769 19.6687L145.756 20.625V30.2936H143.087V0H145.756V17.375L155.562 8.36875H159.05L148.75 17.8625L160 30.2936ZM119.85 19.325C119.85 24.2812 123.694 28.3061 128.431 28.3061C130.138 28.2833 131.8 27.7528 133.205 26.7823C134.609 25.8117 135.693 24.445 136.319 22.8562H139.15C138.466 25.1782 137.056 27.2201 135.127 28.6822C133.198 30.1444 130.851 30.9503 128.431 30.9811C122.225 30.9811 117.181 25.75 117.181 19.325C117.181 12.9 122.231 7.66875 128.431 7.66875C130.874 7.70072 133.241 8.52119 135.179 10.0079C137.117 11.4946 138.523 13.5679 139.187 15.9187H136.362C135.755 14.2986 134.673 12.8992 133.258 11.9035C131.844 10.9078 130.161 10.362 128.431 10.3375C123.694 10.3375 119.85 14.3687 119.85 19.325ZM84.9186 30.2936H87.5936V0H84.9186V30.2936ZM11.25 28.3061C6.51875 28.3061 2.66875 24.2812 2.66875 19.325C2.66875 14.3687 6.51875 10.3375 11.25 10.3375C15.9812 10.3375 19.8312 14.375 19.8312 19.325C19.8312 24.275 15.9812 28.3061 11.25 28.3061ZM19.8312 11.8C18.7982 10.5164 17.4919 9.47953 16.0074 8.76483C14.5228 8.05014 12.8976 7.67569 11.25 7.66875C5.04375 7.66875 0 12.8937 0 19.325C0 25.7562 5.04375 30.9811 11.25 30.9811C12.8956 30.9772 14.5196 30.6067 16.0039 29.8964C17.4883 29.1861 18.7958 28.1539 19.8312 26.875V27.8875C19.8462 30.2531 18.9221 32.5278 17.2618 34.2128C15.6014 35.8978 13.3404 36.855 10.975 36.875C9.6978 36.8747 8.43619 36.5947 7.27875 36.0547C6.12128 35.515 5.09603 34.7283 4.275 33.75H1.025C2.02848 35.5044 3.47647 36.9639 5.22317 37.9808C6.96989 38.9981 8.95372 39.5369 10.975 39.5436C14.0521 39.5222 16.9947 38.2797 19.1559 36.0892C21.3171 33.8986 22.5199 30.9394 22.5 27.8625V8.3125H19.8312V11.8ZM30.4561 11.2437C31.3589 10.2778 32.4492 9.5063 33.6603 8.97647C34.8714 8.44667 36.1781 8.16967 37.5 8.1625V10.8375C35.6217 10.8457 33.8233 11.5972 32.4975 12.9277C31.1717 14.2581 30.4267 16.0593 30.425 17.9375V30.2936H27.7562V8.3125H30.425L30.4561 11.2437ZM49.4625 10.3375C51.5472 10.3321 53.5686 11.0547 55.1775 12.3807C56.7864 13.7066 57.8819 15.5525 58.275 17.6H40.625C41.0269 15.5569 42.125 13.7164 43.7319 12.3921C45.3389 11.0678 47.3553 10.3417 49.4375 10.3375H49.4625ZM61.15 20.2687L61.1 18.8875C61.0008 15.8283 59.7014 12.9311 57.4825 10.8229C55.2636 8.71461 52.3036 7.56483 49.2436 7.62236C46.1833 7.67986 43.2686 8.94003 41.1306 11.1302C38.9925 13.3203 37.8028 16.2642 37.8186 19.325C37.855 22.4431 39.1247 25.4199 41.35 27.6044C43.5756 29.7889 46.5756 31.0028 49.6936 30.9811C52.0339 30.9853 54.3236 30.3022 56.2792 29.0167C58.2347 27.7313 59.7697 25.8999 60.6936 23.75H57.7061C56.8811 25.1411 55.7075 26.2931 54.3014 27.0921C52.895 27.8911 51.3047 28.3097 49.6875 28.3061C47.4367 28.3292 45.2564 27.5224 43.5628 26.0398C41.8692 24.5572 40.7811 22.5027 40.5061 20.2687H61.1311H61.15Z" fill="#FEFEFE"/>
</svg>
