<svg width="438" height="40" viewBox="0 0 438 40" fill="none" xmlns="http://www.w3.org/2000/svg">
<mask id="mask0_34_403" style="mask-type:luminance" maskUnits="userSpaceOnUse" x="0" y="0" width="438" height="40">
<path d="M437.922 0H0V40H437.922V0Z" fill="white"/>
</mask>
<g mask="url(#mask0_34_403)">
<path fill-rule="evenodd" clip-rule="evenodd" d="M97.4484 14.133H122.654V26.5824H97.4484V14.133ZM21.3679 14.133H46.5729V26.5824H21.3679V14.133ZM0.0522461 13.6673C0.0522461 14.0258 0.161007 14.133 0.51946 14.133H8.60914V26.7371H21.2116V39.0302C21.2116 39.3886 21.3204 39.4975 21.6788 39.4975H59.0191C59.3776 39.4975 59.4862 39.3886 59.4862 39.0302V26.7371H72.0888V14.133H84.535V26.2714C84.535 26.6299 84.6439 26.7371 85.0022 26.7371H97.2937V39.0302C97.2937 39.3886 97.4009 39.4975 97.7594 39.4975H135.41V26.7371H148.169V14.133H156.104C156.463 14.133 156.571 14.0258 156.571 13.6673V1.21796H0.0522461V13.6673Z" fill="#FEFEFE"/>
<path fill-rule="evenodd" clip-rule="evenodd" d="M200.758 19.5794H191.112V5.88608H200.29C204.325 5.88608 209.003 7.21283 209.003 11.7997C209.003 14.3965 209.025 16.4005 206.516 18.1807C205.221 19.0999 202.989 19.5794 200.758 19.5794ZM186.131 39.0302C186.131 39.3886 186.24 39.4975 186.599 39.4975H190.644C191.003 39.4975 191.112 39.3886 191.112 39.0302V24.2476H200.601C204.628 24.2476 207.747 23.2854 210.096 21.6048C212.144 20.1386 214.138 17.0317 214.138 13.511C214.138 9.36074 213.423 6.39319 209.982 3.81783C207.608 2.03913 204.225 1.21796 200.134 1.21796H186.131V39.0302Z" fill="#FEFEFE"/>
<path fill-rule="evenodd" clip-rule="evenodd" d="M341.407 35.6078C339.529 35.6078 338.26 35.6536 336.532 34.7253C330.83 31.6658 330.639 23.572 334.516 19.6914C336.902 17.306 340.99 16.5231 344.365 18.023C346.29 18.8794 347.953 20.6933 348.745 22.6651C351.12 28.588 347.403 35.6078 341.407 35.6078ZM327.559 39.0303C327.559 39.3889 327.667 39.4975 328.025 39.4975C333.133 39.4975 332.227 40.2866 332.227 36.2297C333.088 36.8072 333.538 37.7939 335.596 38.7744C340.429 41.0772 346.931 39.9772 350.55 36.0366C356.78 29.2483 354.63 17.5511 346.587 14.0872C342.035 12.1277 336.688 12.6088 333.122 15.8077C332.75 16.1416 332.639 16.3485 332.227 16.6227L332.23 2.77155C332.255 0.82127 332.894 1.21807 327.559 1.21807V39.0303Z" fill="#FEFEFE"/>
<path fill-rule="evenodd" clip-rule="evenodd" d="M238.098 26.4263C238.098 16.6029 251.193 13.8513 255.27 22.1688C257.243 26.195 256.085 32.3322 251.483 34.6777C247.555 36.6802 241.799 35.5772 239.502 31.5572C239.267 31.145 238.982 30.5919 238.783 30.0986C238.444 29.2636 238.098 27.5095 238.098 26.4263ZM233.43 26.4263C233.43 30.2272 234.824 33.5044 237.281 35.9572C242.724 41.3927 251.753 41.3025 257.119 35.9572C261.631 31.4622 262.168 24.1421 258.575 18.7064C255.083 13.4208 247.632 11.5119 241.584 14.0429C240.08 14.6725 238.568 15.604 237.434 16.7377C235.297 18.8718 233.43 22.2255 233.43 26.4263Z" fill="#FEFEFE"/>
<path fill-rule="evenodd" clip-rule="evenodd" d="M373.302 35.6077C370.258 35.6077 368.131 35.2936 365.945 33.0047C361.001 27.8233 363.684 17.2461 372.366 17.2461C380.682 17.2461 384.304 26.4889 379.238 32.8316C378.077 34.2855 375.311 35.6077 373.302 35.6077ZM358.832 25.6479C358.832 30.0938 359.818 33.2727 362.679 36.1163C363.606 37.0369 365.223 38.1661 366.456 38.7177C372.414 41.3772 379.652 39.8622 383.704 34.4969C386.642 30.6086 386.945 24.9538 384.97 20.514C383.712 17.6874 380.935 15.1595 378.08 14.0212C375.163 12.8569 372.769 12.6592 369.586 13.2169C368.686 13.3747 367.853 13.6688 367.075 13.9752C364.809 14.8746 362.845 16.3959 361.432 18.2879C359.979 20.229 358.832 23.0327 358.832 25.6479Z" fill="#FEFEFE"/>
<path fill-rule="evenodd" clip-rule="evenodd" d="M268.748 9.77603V13.5111H263.457C262.656 13.5111 262.992 15.0478 262.992 17.2462C262.992 17.6047 263.099 17.712 263.457 17.712H268.748V39.0302C268.748 39.3889 268.855 39.4975 269.214 39.4975H272.948C273.307 39.4975 273.416 39.3889 273.416 39.0302V17.712H282.905C283.705 17.712 283.372 16.1754 283.372 13.9784C283.372 13.6199 283.264 13.5111 282.905 13.5111H273.416C273.416 9.99358 272.57 4.33117 277.616 4.33117C280.625 4.33117 282.092 5.65025 283.061 5.73144L284.619 1.99634C281.436 0.312631 277.078 -0.822608 273.569 0.750795C270.384 2.17866 268.748 5.17839 268.748 9.77603Z" fill="#FEFEFE"/>
<path fill-rule="evenodd" clip-rule="evenodd" d="M406.907 31.7164V32.3397C406.907 36.8883 396.939 36.6539 392.97 34.2978C392.492 34.0128 391.631 33.3892 391.195 33.2728C390.559 34.4708 389.798 35.5111 389.173 36.6969C389.92 37.0922 390.392 37.4661 391.245 37.8889C400.085 42.2797 411.576 39.3764 411.576 32.4944C411.576 30.2225 411.339 28.2308 409.245 26.7356C403.627 22.7201 394.928 25.5835 394.928 20.6687C394.928 17.8666 398.124 16.9351 400.53 16.9351C402.121 16.9351 404.04 17.3227 405.232 17.6766C407.129 18.2389 408.387 19.106 409.084 19.2684C409.406 18.6633 409.704 18.1638 410.017 17.5556C410.34 16.9351 410.778 16.4418 410.953 15.6896C410.69 15.6191 406.793 13.1449 402.557 13.0392C399.46 12.9625 396.425 12.8369 393.525 14.7535C392.122 15.6804 390.817 17.145 390.375 19.0738C389.267 23.8982 392.231 26.6973 395.983 27.7053C399.297 28.5969 403.024 28.3519 405.307 29.5836C405.957 29.9344 406.907 30.8061 406.907 31.7164Z" fill="#FEFEFE"/>
<path fill-rule="evenodd" clip-rule="evenodd" d="M433.201 31.7164V32.34C433.201 36.8886 423.232 36.6541 419.264 34.2977C418.786 34.0127 417.925 33.3894 417.489 33.2727C417.361 33.7494 415.883 35.9064 415.467 36.6969C419.972 39.0825 420.938 39.9647 427.29 39.9647C431.995 39.9647 437.87 37.3114 437.87 32.4947C437.87 30.2027 437.65 28.2447 435.539 26.7357C434.228 25.7996 432.692 25.127 430.859 24.7241C427.199 23.9182 421.222 24.43 421.222 20.6688C421.222 17.9203 424.48 16.9352 426.824 16.9352C431.576 16.9352 434.339 19.0249 435.381 19.2685C435.825 18.4274 437.072 16.4373 437.247 15.6897C436.986 15.6192 433.087 13.145 428.848 13.0392L425.418 13.0408C420.713 13.0791 415.72 16.4021 416.575 22.2024C417.028 25.268 419.411 26.8 422.291 27.6917C424.274 28.3061 426.563 28.3627 428.737 28.7136C430.334 28.9694 433.201 29.7936 433.201 31.7164Z" fill="#FEFEFE"/>
<path fill-rule="evenodd" clip-rule="evenodd" d="M305.933 13.5112H300.331V17.712H305.933V31.5617C305.933 36.2175 309.269 39.965 314.335 39.965C320.209 39.965 321.312 37.8553 322.737 37.4739C322.434 36.9022 322.117 36.3997 321.739 35.8253C321.476 35.4256 320.812 34.425 320.712 34.0511C320.126 34.1003 319.984 34.2872 319.618 34.5092C317.479 35.8008 313.096 36.4611 311.402 33.8706C310.733 32.8425 310.446 31.5142 310.446 29.8503V17.712H321.334V13.5112H310.446V5.42047H305.933V13.5112Z" fill="#FEFEFE"/>
<path fill-rule="evenodd" clip-rule="evenodd" d="M220.984 16.6227C220.984 12.7344 221.929 13.5112 216.471 13.5112V39.4975C221.977 39.4975 220.984 40.4305 220.984 35.6078C220.984 32.4394 220.795 24.9984 221.203 22.7555C221.865 19.1077 225.003 16.9062 228.635 17.3719C229.429 17.473 229.879 17.5067 230.497 17.689C231.16 17.8867 231.437 18.1625 232.185 18.1793L233.24 13.8145C230.757 12.6027 226.547 12.5843 224.098 13.9815C221.857 15.2623 221.446 16.2842 220.984 16.6227Z" fill="#FEFEFE"/>
<path fill-rule="evenodd" clip-rule="evenodd" d="M289.908 39.4977H293.955C294.313 39.4977 294.419 39.3888 294.419 39.0305V13.5112H289.908V39.4977Z" fill="#FEFEFE"/>
<path fill-rule="evenodd" clip-rule="evenodd" d="M288.974 4.64216C288.974 5.66249 288.977 6.35344 289.938 7.25735C291.746 8.95638 295.354 7.94677 295.354 4.79688C295.354 0.876401 288.974 0.597568 288.974 4.64216Z" fill="#FEFEFE"/>
</g>
</svg>
