<svg width="190" height="40" viewBox="0 0 190 40" fill="none" xmlns="http://www.w3.org/2000/svg">
<mask id="mask0_34_417" style="mask-type:luminance" maskUnits="userSpaceOnUse" x="0" y="0" width="190" height="40">
<path d="M189.778 0H0V40H189.778V0Z" fill="white"/>
</mask>
<g mask="url(#mask0_34_417)">
<path d="M103.761 4.15364C105.299 1.47421 108.397 0.0616261 111.398 0.0347836C114.137 -0.143127 117.235 0.315125 119.154 2.49319C118.179 3.78706 117.246 5.10794 116.27 6.40178C115.182 5.14564 114.287 3.37722 112.529 3.02139C110.798 2.48227 108.622 3.388 108.172 5.25336C107.443 8.21314 107.882 11.3076 107.775 14.3268H113.398V17.6965H107.77C107.77 22.7751 107.77 27.8533 107.764 32.9322C107.743 34.3717 107.973 35.7947 108.242 37.2072C109.528 37.8056 110.916 38.1131 112.336 38.14C112.331 38.4903 112.326 39.1967 112.32 39.5525C107.722 39.2506 103.117 39.1589 98.5239 39.5469C98.5239 39.2506 98.5347 38.6575 98.5347 38.3611C99.987 38.1022 101.788 37.4228 101.847 35.6653C102.41 29.6972 102.029 23.6861 102.142 17.6966C101.022 17.6966 99.9014 17.6966 98.781 17.6912C98.7863 17.1844 98.7971 16.6722 98.8026 16.1654C99.9387 15.6371 101.048 15.0495 102.142 14.4456C102.142 10.9844 101.938 7.24283 103.76 4.15383L103.761 4.15364Z" fill="#FEFEFE"/>
<path d="M186.662 0.0292969C183.687 0.719364 180.675 1.30143 177.619 1.43621C177.587 1.71656 177.528 2.27711 177.501 2.55746C178.638 2.9025 180.492 2.81131 180.573 4.40711C181.028 7.64194 180.707 10.9245 180.798 14.1808C176.419 13.4261 171.525 13.4746 167.8 16.2188C163.721 19.0923 162.322 24.4514 162.73 29.2283C162.96 32.9319 164.804 36.7328 168.143 38.5389C172.12 40.7383 177.207 40.2856 180.932 37.7517C180.959 38.5011 180.975 39.2503 180.98 39.9997C183.864 39.2611 186.812 38.8458 189.776 38.6733V37.3792C185.575 36.6597 186.737 34.7042 186.442 31.3794C186.447 20.9313 186.286 10.4775 186.662 0.0300124V0.0292969ZM175.764 16.8782C177.538 16.8593 179.342 17.4293 180.798 18.424C180.803 24.0469 180.787 29.67 180.809 35.2928C177.689 36.7322 173.471 36.6297 171.027 33.9664C168.931 31.7131 168.577 28.4136 168.765 25.4699C168.974 22.7905 169.532 19.7283 171.858 18.0676C173.023 17.2633 174.384 16.8925 175.764 16.8778V16.8782Z" fill="#FEFEFE"/>
<path d="M9.8493 3.4634C13.3814 3.24777 16.9242 3.4796 20.419 3.97557C20.21 6.4771 20.2314 8.99488 20.4244 11.4963C20.0867 11.4963 19.4113 11.5017 19.0737 11.5017C18.8057 9.93827 18.5269 8.04049 16.8707 7.34496C14.4159 6.30443 11.5429 6.20202 8.99698 6.94602C5.66856 7.93799 5.12178 12.8654 7.59808 15.0167C10.6961 17.7447 14.4909 19.5293 17.664 22.1763C22.6324 26.155 21.984 35.4172 16.0882 38.2044C11.125 40.5117 5.29875 39.9294 0.174614 38.4794C0.206637 36.0008 0.115607 33.5225 0.00292969 31.0469C0.372749 31.0414 1.11778 31.0253 1.49296 31.02C1.7556 32.578 1.99678 34.4919 3.56723 35.295C6.37578 36.88 9.99901 37.0094 12.915 35.6455C16.5545 33.6239 15.8843 27.7797 12.4808 25.8118C9.52749 23.5242 6.13472 21.8331 3.40645 19.2502C0.38345 16.4252 0.00835575 11.476 1.95411 7.94468C3.54583 5.13038 6.75653 3.72352 9.84922 3.46463L9.8493 3.4634Z" fill="#FEFEFE"/>
<path d="M30.8113 8.763C31.0899 8.77917 31.6528 8.80611 31.9314 8.82231C31.9262 10.7038 31.9262 12.58 31.9262 14.4617H40.5021V17.6965H31.9262C31.9582 22.2252 31.8566 26.7592 31.9745 31.2933C32.0924 33.0183 32.1405 35.1697 33.743 36.2264C35.764 37.4339 38.1812 36.6791 40.2019 35.8866C40.8236 37.4177 39.2425 38.275 38.1437 38.9114C35.5657 40.1675 32.4194 40.3022 29.7555 39.2564C27.4776 38.3991 26.3788 35.8922 26.2608 33.5955C25.9874 28.3011 26.2608 22.9965 26.3036 17.6968H22.9536C22.9482 17.341 22.9429 16.9906 22.9375 16.6401C26.577 15.26 29.0314 12.1061 30.8113 8.76361V8.763Z" fill="#FEFEFE"/>
<path d="M53.7618 13.6063C49.8974 13.5664 46.0005 15.497 44.7589 19.3998C45.0966 19.594 45.7826 19.9766 46.1256 20.1707C47.6102 17.5343 51.078 16.1812 53.8115 17.7017C55.9553 18.6829 56.1379 21.3189 56.0951 23.384C52.7237 24.473 49.2341 25.3304 46.0505 26.9263C42.2342 28.9533 41.7412 34.7003 44.4747 37.8111C47.6961 40.7817 53.0719 40.3017 56.2558 37.4928C57.226 39.4228 59.5198 40.1614 61.5189 39.5956C63.2609 39.2559 64.4131 37.7947 65.5547 36.56C65.3565 36.3336 64.9549 35.8753 64.7566 35.6436C64.0383 35.8267 63.2289 36.3983 62.5266 35.8431C61.6156 35.2122 61.728 33.9453 61.6636 32.9695C61.728 28.7858 61.9583 24.5918 61.7385 20.4029C61.6313 18.2356 60.6667 16.0195 58.7587 14.882C57.2679 14.0497 55.5182 13.6246 53.7615 13.6064L53.7618 13.6063ZM56.0357 26.651C56.0572 29.4706 56.036 32.29 56.0575 35.1097C54.2619 35.9131 52.1285 36.657 50.2365 35.735C47.9209 34.495 48.0176 30.7861 49.9311 29.2281C51.7695 27.9558 53.9507 27.3573 56.036 26.6511L56.0357 26.651Z" fill="#FEFEFE"/>
<path d="M127.633 13.7119C124.808 13.7442 121.893 14.4505 119.684 16.2997C116.398 18.9738 114.973 23.3946 115.118 27.5456C115.102 31.0983 116.2 34.8886 118.982 37.2502C122.268 40.1291 127.043 40.4147 131.133 39.5575C135.448 38.603 138.69 34.8025 139.607 30.5433C140.593 26.1226 140.18 20.9849 137.157 17.4161C134.831 14.6773 131.106 13.642 127.633 13.7121V13.7119ZM127.671 16.7293C129.189 16.759 130.691 17.3861 131.664 18.6018C133.427 20.7744 133.899 23.6965 134.028 26.4244C134.049 29.395 133.674 32.6025 131.814 35.0283C129.986 37.4058 126.047 37.67 123.94 35.5297C122.327 34.0255 121.726 31.7886 121.362 29.6858C120.981 26.8931 121.078 23.9871 121.952 21.2969C122.563 19.4962 123.753 17.674 125.639 17.0593C126.288 16.8251 126.981 16.7154 127.671 16.7289V16.7293Z" fill="#FEFEFE"/>
<path d="M67.5705 15.4266C70.5668 15.3781 73.6057 15.0654 76.3715 13.82C76.4679 14.5371 76.543 15.2541 76.6021 15.9819C79.7804 13.8901 83.8859 13.076 87.5254 14.37C90.1302 15.2487 91.9526 17.8151 92.1832 20.5321C92.7192 25.7024 91.9418 30.9428 92.6281 36.1022C92.7029 37.725 94.4397 38.0914 95.6993 38.3555C95.7048 38.6575 95.7048 39.2614 95.7101 39.5633C91.4544 39.2236 82.9323 39.5472 82.9323 39.5472L82.916 38.3247C82.916 38.3247 85.99 37.4553 86.1855 36.5658C86.8875 32.7272 86.7215 28.7594 86.684 24.8614C86.5445 22.5325 86.6036 19.6211 84.3899 18.2033C82.0154 16.8285 79.105 17.4646 76.6772 18.3542C76.6932 23.4003 76.6772 28.4519 76.6772 33.4983C76.7468 34.8461 76.6504 36.3825 77.5239 37.5039C78.2582 38.0161 79.1803 38.1075 80.0218 38.345C80.0271 38.6466 80.0323 39.2558 80.0323 39.5633C75.8355 39.2883 71.6281 39.1105 67.4365 39.5578C67.4365 39.2558 67.4473 38.6575 67.4473 38.3611C68.7232 38.0644 70.4061 37.6603 70.6472 36.1075C71.2313 32.3878 70.7811 28.5866 70.9206 24.8344C70.8667 22.6941 71.1026 20.5268 70.7276 18.4133C70.4326 16.9685 68.6801 17.0494 67.5757 16.7636C67.5757 16.4294 67.5705 15.7609 67.5705 15.4266V15.4266Z" fill="#FEFEFE"/>
<path d="M142.469 15.3133C145.47 15.2702 148.472 14.8604 151.323 13.8954L151.404 16.1166C154.287 13.7822 158.634 13.1891 161.705 15.502L158.503 20.4184C157.008 18.1001 153.974 17.5394 151.578 18.7201C151.578 18.7201 151.562 28.9258 151.594 34.0258C151.717 35.1633 151.54 36.6406 152.602 37.3844C153.625 37.9883 154.869 37.9558 156.011 38.1392C156.011 38.4897 156.005 39.2014 156.005 39.5517C151.401 39.2389 146.786 39.1744 142.182 39.5408L142.181 38.1392C143.665 37.8847 145.21 37.3683 145.435 36.4786C146.073 34.2844 145.762 31.9608 145.827 29.7017C145.762 26.1058 145.955 22.5044 145.741 18.914C145.725 17.1672 143.758 17.0109 142.482 16.7575C142.484 16.2624 142.474 15.754 142.472 15.3127L142.469 15.3133Z" fill="#FEFEFE"/>
</g>
</svg>
