<svg width="286" height="40" viewBox="0 0 286 40" fill="none" xmlns="http://www.w3.org/2000/svg">
<path d="M20.6496 39.9997L5.81243 8.21147C4.85728 6.19231 3.95002 4.78742 3.09193 3.99947C2.23386 3.2115 1.23859 2.81622 0.106128 2.81622H0V1.30119H21.4197L21.3938 2.8175C20.4205 2.8525 19.6815 3.06894 19.1768 3.46811C18.672 3.86597 18.421 4.42972 18.421 5.1555C18.421 5.49244 18.4688 5.86442 18.5659 6.27136C18.6643 6.67958 18.8183 7.12283 19.0318 7.60106L24.7381 21.8739L32.3288 0L40.6639 21.8739L45.8122 8.10519C45.9547 7.71639 46.0646 7.28611 46.1436 6.81697C46.2238 6.34781 46.2627 5.86442 46.2627 5.36803C46.2627 4.58914 45.9975 3.99039 45.4668 3.57436C44.9361 3.15836 44.1311 2.90564 43.0517 2.81622V1.30119H54.0138V2.8175C52.6162 2.95878 51.5055 3.39683 50.6825 4.13294C49.8594 4.86778 49.0672 6.21044 48.3063 8.15833L35.9916 39.9997L27.975 19.1083L20.6496 39.9997ZM76.1725 34.445C74.6687 36.2517 72.9436 37.6294 70.9957 38.5781C69.0531 39.525 66.919 40.0114 64.7586 39.9997C62.7422 39.9997 60.8525 39.5917 59.0924 38.7764C57.3326 37.9619 55.7772 36.7631 54.5406 35.2681C53.5075 34.0467 52.7069 32.6458 52.1788 31.1353C51.6481 29.6214 51.3815 27.9858 51.3815 26.2324C51.3815 24.4244 51.639 22.7409 52.1516 21.1819C52.6809 19.592 53.4703 18.1012 54.4876 16.7703C55.6199 15.228 57.1459 13.98 59.0652 13.0222C60.986 12.0658 62.9364 11.5876 64.9178 11.5876C68.3684 11.5876 71.125 12.6412 73.1869 14.7498C75.2471 16.8584 76.2788 19.685 76.2788 23.2283H60.9108C61.017 26.3827 62.0434 29.0044 63.9899 31.095C65.9365 33.1867 68.2802 34.2314 71.0229 34.2314C72.0673 34.2314 73.0135 34.0419 73.8637 33.6611C74.7442 33.2569 75.5306 32.6728 76.1725 31.9464V34.445ZM60.8578 21.3426H63.2987C65.7059 21.3426 67.1828 21.1339 67.7315 20.7166C68.2802 20.3019 68.5546 19.5074 68.5546 18.3384C68.5546 16.7612 68.2713 15.5779 67.7057 14.79C67.1401 14.002 66.2821 13.608 65.1301 13.608C63.6626 13.608 62.583 14.2236 61.8933 15.4548C61.2034 16.686 60.8578 18.6482 60.8578 21.3413V21.3426ZM86.5731 3.74544C84.5387 4.10056 82.7913 4.94167 81.3314 6.27006C79.8717 7.59975 78.6458 9.45953 77.6558 11.8519L76.4599 11.4269L78.5851 0.318817C79.0808 0.637633 79.7266 0.881281 80.5225 1.04976C81.3186 1.21824 82.2659 1.30119 83.3622 1.30119H101.703C102.782 1.30119 103.717 1.21824 104.503 1.04976C105.29 0.881281 105.932 0.637633 106.428 0.318817L108.604 11.4281L107.41 11.8532C106.384 9.42583 105.146 7.55181 103.693 6.23247C102.244 4.91183 100.509 4.08369 98.4905 3.74675V32.6644C98.4905 34.4011 98.7829 35.5883 99.3679 36.2258C99.9505 36.8633 101.066 37.2356 102.712 37.3417V38.8567H82.2737V37.3417C83.9536 37.2356 85.0912 36.8583 85.684 36.2117C86.2768 35.565 86.5731 34.3831 86.5731 32.6644V3.74544ZM121.048 16.051C121.932 14.5632 122.892 13.446 123.928 12.7021C124.963 11.9582 126.072 11.5863 127.258 11.5863C128.567 11.5863 129.621 11.9751 130.415 12.7553C131.213 13.5354 131.611 14.5632 131.611 15.8397C131.611 16.9543 131.279 17.8498 130.615 18.5224C129.952 19.1964 129.072 19.5333 127.975 19.5333C126.985 19.5333 126.033 19.1342 125.122 18.3371C124.21 17.5401 123.631 17.1409 123.383 17.1409C122.8 17.1409 122.384 17.5297 122.135 18.3099C121.886 19.0901 121.764 20.4807 121.764 22.483V33.4603C121.764 34.8417 122.043 35.8344 122.6 36.4372C123.158 37.0397 124.072 37.3403 125.347 37.3403H125.507V38.8567H108.12V37.3417H108.279C109.448 37.3417 110.284 37.045 110.787 36.4514C111.291 35.8578 111.544 34.8611 111.544 33.4614V23.4408C111.544 22.5906 111.438 21.9621 111.226 21.5538C111.013 21.1456 110.615 20.7477 110.031 20.3589L106.713 18.0196C108.447 17.417 110.447 16.5888 112.712 15.5339C114.976 14.4802 117.755 13.0935 121.047 11.3737L121.048 16.051ZM146.126 23.1738C144.535 23.8127 143.322 24.8171 142.49 26.1909C141.657 27.5647 141.242 29.2431 141.242 31.2272C141.242 32.3611 141.467 33.2658 141.919 33.9383C142.371 34.6122 142.958 34.9492 143.684 34.9492C144.621 34.9492 145.263 34.5761 145.609 33.8322C145.953 33.0883 146.126 31.2272 146.126 28.2503V23.1738ZM146.631 35.4261C145.285 36.9683 143.874 38.1153 142.396 38.8683C140.918 39.6214 139.357 39.9986 137.711 39.9986C135.536 39.9986 133.77 39.3828 132.418 38.1517C131.063 36.9206 130.386 35.3394 130.386 33.4069C130.386 31.1208 131.417 29.1328 133.479 27.4403C135.54 25.7477 139.756 23.6702 146.126 21.2065V19.3208C146.126 17.3366 145.874 15.9136 145.369 15.0544C144.864 14.1951 144.037 13.7661 142.888 13.7661C141.95 13.7661 141.171 14.0448 140.552 14.6034C139.933 15.1619 139.623 15.8566 139.623 16.6899C139.623 17.1318 139.641 17.6503 139.676 18.2451C139.711 18.8374 139.729 19.2145 139.729 19.3726C139.729 20.6673 139.37 21.708 138.655 22.496C137.938 23.2853 136.987 23.6793 135.801 23.6793C134.722 23.6793 133.854 23.3384 133.199 22.6554C132.544 21.9724 132.217 21.0743 132.217 19.9584C132.217 17.5479 133.359 15.552 135.642 13.9644C137.925 12.3794 140.862 11.5863 144.454 11.5863C146.471 11.5863 148.298 11.8429 149.934 12.3574C151.571 12.8706 152.911 13.6145 153.955 14.5891C154.806 15.3874 155.406 16.3167 155.761 17.3807C156.115 18.4447 156.291 20.0466 156.291 22.1914V29.7653C156.291 31.8739 156.456 33.3719 156.783 34.2572C157.109 35.1436 157.637 35.5869 158.362 35.5869C158.527 35.5856 158.69 35.5494 158.84 35.4806C158.999 35.4094 159.167 35.3031 159.344 35.1606V36.8881C158.637 37.7928 157.72 38.4925 156.597 38.9875C155.473 39.4839 154.23 39.7328 152.868 39.7328C151.31 39.7328 150.005 39.37 148.953 38.6428C147.901 37.9158 147.126 36.8442 146.63 35.4261H146.631ZM173.435 33.4603C173.435 34.8247 173.677 35.8033 174.163 36.3969C174.65 36.9906 175.46 37.3042 176.593 37.3403V38.8567H159.791V37.3417H159.95C161.119 37.3417 161.955 37.045 162.459 36.4514C162.963 35.8578 163.216 34.8611 163.216 33.4614V23.4408C163.216 22.5906 163.109 21.9621 162.897 21.5538C162.684 21.1469 162.286 20.7477 161.703 20.3589L158.384 18.0196C160.695 17.1739 162.966 16.2251 165.192 15.1762C167.678 14.0043 170.117 12.7363 172.504 11.375V15.8929C173.566 14.4751 174.805 13.4123 176.22 12.7047C177.636 11.9945 179.229 11.6407 180.998 11.6407C183.9 11.6407 186.063 12.3794 187.488 13.8594C188.911 15.3395 189.623 17.5945 189.623 20.6246V33.4614C189.623 34.8611 189.877 35.8578 190.38 36.4514C190.885 37.045 191.721 37.3417 192.889 37.3417H193.048V38.8567H179.407V20.8903C179.407 18.9761 179.171 17.6477 178.703 16.9038C178.234 16.1586 177.442 15.7866 176.327 15.7866C175.283 15.7866 174.54 16.1728 174.097 16.9426C173.655 17.7138 173.434 19.0292 173.434 20.8903L173.435 33.4603ZM193.947 37.7656V29.0486H195.327C196.123 31.9361 197.345 34.1639 198.99 35.7319C200.635 37.3003 202.564 38.0844 204.776 38.0844C205.962 38.0844 206.882 37.8094 207.537 37.2614C208.192 36.7119 208.519 35.9408 208.519 34.9481C208.519 32.9989 206.608 31.2453 202.786 29.6861L202.44 29.5528C199.079 28.1894 196.849 26.8998 195.752 25.6854C194.655 24.4724 194.107 22.9081 194.107 20.9939C194.107 18.1427 195.177 15.8695 197.318 14.177C199.458 12.4844 202.361 11.6407 206.024 11.6407C207.404 11.6407 208.819 11.7599 210.27 11.9997C211.721 12.2381 213.208 12.5881 214.729 13.0494V20.3058H213.402C212.199 17.8602 210.995 16.1236 209.791 15.0958C208.588 14.0681 207.209 13.5536 205.652 13.5536C204.484 13.5536 203.538 13.8426 202.811 14.418C202.085 14.9934 201.724 15.7335 201.724 16.6368C201.724 18.144 203.679 19.685 207.59 21.2622C207.908 21.3866 208.146 21.4825 208.306 21.5538C211.864 23.0079 214.163 24.3273 215.208 25.5144C216.251 26.7015 216.774 28.2789 216.774 30.2447C216.774 33.1336 215.663 35.4806 213.443 37.2886C211.222 39.0964 208.333 39.9997 204.776 39.9997C203.042 39.9997 201.273 39.8131 199.467 39.4425C197.582 39.0456 195.735 38.485 193.947 37.7667V37.7656ZM231.686 33.4603C231.686 34.8781 231.942 35.8786 232.456 36.4631C232.969 37.0475 233.836 37.3403 235.058 37.3403H235.429V38.8567H218.044V37.3417H218.203C219.37 37.3417 220.206 37.045 220.711 36.4514C221.216 35.8578 221.467 34.8611 221.467 33.4614V14.8029H218.865V13.3151C219.698 12.6593 220.742 11.3037 221.997 9.24828C222.67 8.16739 223.201 7.35222 223.591 6.804C224.917 4.90794 226.498 3.43311 228.328 2.37816C230.158 1.32322 232.076 0.797042 234.074 0.797042C236.216 0.797042 237.963 1.31544 239.316 2.35224C240.671 3.38906 241.348 4.70319 241.348 6.29856C241.348 7.36128 241.011 8.21664 240.338 8.86336C239.666 9.51006 238.772 9.83278 237.659 9.83278C236.792 9.83278 236.066 9.63447 235.482 9.23531C234.897 8.83614 234.288 8.043 233.651 6.85714C232.996 5.70369 232.438 4.95203 231.979 4.59692C231.518 4.24311 230.969 4.06556 230.332 4.06556C229.589 4.06556 229.006 4.28328 228.581 4.71744C228.155 5.15161 227.943 5.73092 227.943 6.45797C227.943 7.23817 228.466 8.25164 229.509 9.501C230.554 10.7503 231.225 11.8442 231.527 12.7838H236.516V14.8029H231.686V33.4603ZM261.091 34.4439C259.587 36.2506 257.862 37.6281 255.914 38.5767C253.972 39.5236 251.838 40.0103 249.677 39.9986C247.661 39.9986 245.771 39.5903 244.011 38.775C242.251 37.9606 240.696 36.7619 239.459 35.2667C238.426 34.0453 237.626 32.6444 237.097 31.1339C236.567 29.62 236.3 27.9844 236.3 26.2311C236.3 24.4231 236.558 22.7396 237.07 21.1806C237.6 19.5907 238.389 18.0999 239.406 16.769C240.539 15.2267 242.065 13.9787 243.984 13.0209C245.905 12.0645 247.855 11.5863 249.837 11.5863C253.287 11.5863 256.044 12.6399 258.105 14.7485C260.166 16.8571 261.197 19.6837 261.197 23.2269H245.83C245.936 26.3814 246.962 29.0033 248.908 31.0936C250.855 33.1856 253.199 34.23 255.941 34.23C256.986 34.23 257.932 34.0408 258.781 33.6597C259.662 33.2558 260.449 32.6717 261.091 31.9453V34.4439ZM245.777 21.3413H248.217C250.625 21.3413 252.101 21.1326 252.65 20.7153C253.199 20.3006 253.473 19.5061 253.473 18.3371C253.473 16.7599 253.19 15.5766 252.624 14.7887C252.058 14.0007 251.201 13.6067 250.049 13.6067C248.581 13.6067 247.502 14.2223 246.811 15.4535C246.12 16.6847 245.775 18.6469 245.775 21.34L245.777 21.3413ZM275.182 16.051C276.066 14.5632 277.026 13.446 278.061 12.7021C279.096 11.9582 280.205 11.5863 281.392 11.5863C282.702 11.5863 283.753 11.9751 284.549 12.7553C285.345 13.5354 285.745 14.5632 285.745 15.8397C285.745 16.9543 285.412 17.8498 284.749 18.5224C284.086 19.1964 283.207 19.5333 282.108 19.5333C281.118 19.5333 280.166 19.1342 279.254 18.3371C278.344 17.5401 277.764 17.1409 277.517 17.1409C276.933 17.1409 276.517 17.5297 276.269 18.3099C276.02 19.0901 275.897 20.4807 275.897 22.483V33.4603C275.897 34.8417 276.176 35.8344 276.733 36.4372C277.29 37.0397 278.205 37.3403 279.481 37.3403H279.639V38.8567H262.255V37.3417H262.414C263.581 37.3417 264.417 37.045 264.922 36.4514C265.427 35.8578 265.679 34.8611 265.679 33.4614V23.4408C265.679 22.5906 265.573 21.9621 265.361 21.5538C265.149 21.1456 264.75 20.7477 264.166 20.3589L260.848 18.0196C262.582 17.417 264.582 16.5888 266.847 15.5339C269.112 14.4802 271.889 13.0935 275.182 11.3737V16.051Z" fill="#FEFEFE"/>
</svg>
