<svg width="60" height="60" viewBox="0 0 60 60" fill="none" xmlns="http://www.w3.org/2000/svg">
<path d="M37.2929 26.7071L38 27.4142L39.4142 26L38.7071 25.2929L37.2929 26.7071ZM30 18L30.7071 17.2929L30 16.5858L29.2929 17.2929L30 18ZM21.2929 25.2929L20.5858 26L22 27.4142L22.7071 26.7071L21.2929 25.2929ZM58 30H57H58ZM30 58V57V58ZM30 2V1V2ZM2 30H1H2ZM38.7071 25.2929L30.7071 17.2929L29.2929 18.7071L37.2929 26.7071L38.7071 25.2929ZM29.2929 17.2929L21.2929 25.2929L22.7071 26.7071L30.7071 18.7071L29.2929 17.2929ZM29 18V44H31V18H29ZM57 30C57 44.9117 44.9117 57 30 57V59C46.0163 59 59 46.0163 59 30H57ZM30 3C44.9117 3 57 15.0883 57 30H59C59 13.9837 46.0163 0.999999 30 1V3ZM3 30C3 15.0883 15.0883 3 30 3V1C13.9837 1 0.999999 13.9837 1 30H3ZM1 30C1 46.0163 13.9837 59 30 59V57C15.0883 57 3 44.9117 3 30H1Z" fill="#828282"/>
</svg>
