<svg width="30" height="30" viewBox="0 0 30 30" fill="none" xmlns="http://www.w3.org/2000/svg">
<path d="M8.125 25C6.22917 25 4.60958 24.3437 3.26625 23.0312C1.92208 21.7187 1.25 20.1146 1.25 18.2188C1.25 16.5938 1.73958 15.1458 2.71875 13.875C3.69792 12.6042 4.97917 11.7917 6.5625 11.4375C6.91667 9.9375 7.80208 8.51042 9.21875 7.15625C10.6354 5.80208 12.1458 5.125 13.75 5.125C14.4375 5.125 15.0262 5.36958 15.5163 5.85875C16.0054 6.34875 16.25 6.9375 16.25 7.625V15.1875L17.375 14.0938C17.6042 13.8646 17.8908 13.75 18.235 13.75C18.5783 13.75 18.875 13.875 19.125 14.125C19.3542 14.3542 19.4688 14.6458 19.4688 15C19.4688 15.3542 19.3542 15.6458 19.125 15.875L15.875 19.125C15.75 19.25 15.6146 19.3383 15.4688 19.39C15.3229 19.4425 15.1667 19.4688 15 19.4688C14.8333 19.4688 14.6771 19.4425 14.5312 19.39C14.3854 19.3383 14.25 19.25 14.125 19.125L10.875 15.875C10.6458 15.6458 10.5262 15.3592 10.5163 15.015C10.5054 14.6717 10.625 14.375 10.875 14.125C11.1042 13.8958 11.3904 13.7758 11.7338 13.765C12.0779 13.755 12.375 13.8646 12.625 14.0938L13.75 15.1875V7.625C12.1667 7.91667 10.9375 8.68208 10.0625 9.92125C9.1875 11.1612 8.75 12.4375 8.75 13.75H8.125C6.91667 13.75 5.88542 14.1771 5.03125 15.0312C4.17708 15.8854 3.75 16.9167 3.75 18.125C3.75 19.3333 4.17708 20.3646 5.03125 21.2188C5.88542 22.0729 6.91667 22.5 8.125 22.5H23.125C24 22.5 24.7396 22.1979 25.3438 21.5938C25.9479 20.9896 26.25 20.25 26.25 19.375C26.25 18.5 25.9479 17.7604 25.3438 17.1562C24.7396 16.5521 24 16.25 23.125 16.25H21.25V13.75C21.25 12.75 21.0208 11.8175 20.5625 10.9525C20.1042 10.0883 19.5 9.35417 18.75 8.75V5.84375C20.2917 6.57292 21.5104 7.65125 22.4062 9.07875C23.3021 10.5054 23.75 12.0625 23.75 13.75C25.1875 13.9167 26.3804 14.5363 27.3288 15.6088C28.2763 16.6821 28.75 17.9375 28.75 19.375C28.75 20.9375 28.2033 22.2658 27.11 23.36C26.0158 24.4533 24.6875 25 23.125 25H8.125Z" fill="#FEFEFE"/>
</svg>
