<svg width="15" height="15" viewBox="0 0 15 15" fill="none" xmlns="http://www.w3.org/2000/svg">
<path d="M0.5 10.5H14.5M0.5 7.5L4.5 3.5L11.5 10.5M1.5 0.5H13.5C14.0523 0.5 14.5 0.947715 14.5 1.5V13.5C14.5 14.0523 14.0523 14.5 13.5 14.5H1.5C0.947716 14.5 0.5 14.0523 0.5 13.5V1.5C0.5 0.947716 0.947715 0.5 1.5 0.5ZM10.5 5.5C9.94772 5.5 9.5 5.05228 9.5 4.5C9.5 3.94772 9.94772 3.5 10.5 3.5C11.0523 3.5 11.5 3.94772 11.5 4.5C11.5 5.05228 11.0523 5.5 10.5 5.5Z" stroke="black" stroke-linejoin="round"/>
</svg>
