<svg width="52" height="40" viewBox="0 0 52 40" fill="none" xmlns="http://www.w3.org/2000/svg">
<mask id="mask0_226_509" style="mask-type:luminance" maskUnits="userSpaceOnUse" x="0" y="0" width="52" height="40">
<path d="M52 0H0V40H52V0Z" fill="white"/>
</mask>
<g mask="url(#mask0_226_509)">
<path d="M24.9935 0L12.5971 40H0L6.47565 19.1112C6.48031 19.1045 6.48238 19.0964 6.48155 19.0882L12.3964 0H24.9935Z" fill="url(#paint0_linear_226_509)"/>
<path d="M39.4559 0L27.0595 40H14.4624L20.8082 19.5235L26.8588 0H39.4559Z" fill="url(#paint1_linear_226_509)"/>
<path d="M51.9997 40.0001H39.4085L37.1713 32.7882V32.7824L34.1194 22.9354L40.4179 2.61768L51.9997 40.0001Z" fill="url(#paint2_linear_226_509)"/>
<g style="mix-blend-mode:screen" opacity="0.4">
<path d="M23.3937 1.17627L1.59961 38.8233L13.27 1.17627H23.3937Z" fill="white"/>
</g>
<g style="mix-blend-mode:screen" opacity="0.4">
<path d="M37.8561 1.17627L16.062 38.8233L27.7323 1.17627H37.8561Z" fill="white"/>
</g>
<g style="mix-blend-mode:multiply" opacity="0.3">
<path d="M40.4181 2.61768L37.1715 32.7854L34.1184 22.9354L40.4181 2.61768Z" fill="#2B2A29"/>
</g>
<g style="mix-blend-mode:multiply" opacity="0.3">
<path d="M39.4559 0L27.0595 40H14.4624C16.5639 39.8765 18.6595 39.8235 20.761 39.7294L23.9073 39.6353L26.723 39.57C27.6557 36.3171 28.6179 33.0702 29.6096 29.8294L31.1444 24.8294L32.7146 19.8353C33.7831 16.5118 34.8634 13.1941 35.979 9.88235C36.5457 8.23529 37.1006 6.57647 37.685 4.93529C38.2694 3.29412 38.842 1.63471 39.4559 0Z" fill="#2B2A29"/>
</g>
<g style="mix-blend-mode:multiply" opacity="0.3">
<path d="M24.9935 0L12.5971 40H0C2.10149 39.8765 4.19707 39.8235 6.29856 39.7294L9.44489 39.6353L12.2606 39.57C13.1933 36.3171 14.1555 33.0702 15.1472 29.8294L16.682 24.8294L18.2522 19.8353C19.3207 16.5118 20.401 13.1941 21.5166 9.88235C22.0833 8.23529 22.6382 6.57647 23.2226 4.93529C23.807 3.29412 24.3796 1.63471 24.9935 0Z" fill="#2B2A29"/>
</g>
<g style="mix-blend-mode:multiply" opacity="0.3">
<path d="M21.5463 0C20.0233 0.158235 18.5003 0.258824 16.9714 0.335294C16.2099 0.376471 15.4484 0.417647 14.6869 0.441176C14.0553 0.464706 13.4237 0.488235 12.7921 0.499999C12.5973 1.18824 12.4025 1.87118 12.2017 2.55882L11.4757 4.95353C11.2396 5.74706 10.9739 6.54176 10.726 7.33588C10.4781 8.13 10.2183 8.92412 9.95269 9.71235C9.68705 10.5006 9.42731 11.3006 9.14397 12.0829C8.86062 12.8653 8.59498 13.6594 8.30573 14.4418C7.73314 16.0065 7.13693 17.5535 6.48169 19.0888L12.3965 0.000587912L21.5463 0Z" fill="#2B2A29"/>
</g>
<g style="mix-blend-mode:multiply" opacity="0.3">
<path d="M36.2092 0C34.6508 0.158235 33.0924 0.258824 31.534 0.335294C30.7547 0.381568 29.9755 0.416863 29.1963 0.441176C28.547 0.464706 27.9036 0.488235 27.2542 0.505294L26.6462 2.60588L25.9083 5.05294L25.1409 7.48765C24.8871 8.30588 24.6215 9.11118 24.3499 9.91706C24.0784 10.7229 23.8128 11.5347 23.5235 12.3406C23.2343 13.1465 22.9686 13.9529 22.6676 14.7471C22.0891 16.3529 21.4752 17.9471 20.8081 19.5235L26.8587 0H36.2092Z" fill="#2B2A29"/>
</g>
<g style="mix-blend-mode:multiply" opacity="0.3">
<path d="M45.7011 39.7229C47.596 39.6588 49.485 39.6054 51.3798 39.5648C50.9253 38.2059 50.4826 36.8471 50.0398 35.4824C49.5322 33.9353 49.0363 32.3822 48.5523 30.823C47.5665 27.7177 46.6161 24.5942 45.6716 21.4765L44.2844 16.7818L42.9385 12.0759C42.5016 10.5053 42.0589 8.93535 41.6516 7.35888C41.2325 5.7765 40.8016 4.20532 40.4179 2.61768L51.9997 40.0001H39.4084C41.504 39.8671 43.6055 39.8118 45.7011 39.7229Z" fill="#2B2A29"/>
</g>
</g>
<mask id="mask1_226_509" style="mask-type:luminance" maskUnits="userSpaceOnUse" x="3" y="1" width="46" height="35">
<path d="M48.0035 1.5H3.99658V35.5H48.0035V1.5Z" fill="white"/>
</mask>
<g mask="url(#mask1_226_509)">
<path d="M25.1483 1.5L14.6574 35.5H3.99658L9.47684 17.7445C9.48079 17.7388 9.48253 17.7319 9.48184 17.725L14.4875 1.5H25.1483Z" fill="url(#paint3_linear_226_509)"/>
<path d="M37.3875 1.5L26.8966 35.5H16.2358L21.6062 18.095L26.7268 1.5H37.3875Z" fill="url(#paint4_linear_226_509)"/>
<path d="M48.0032 35.5001H37.3475L35.4541 29.3701V29.3651L32.8713 20.9951L38.2017 3.7251L48.0032 35.5001Z" fill="url(#paint5_linear_226_509)"/>
<g style="mix-blend-mode:screen" opacity="0.4">
<path d="M23.7944 2.5L5.35034 34.5L15.2268 2.5H23.7944Z" fill="white"/>
</g>
<g style="mix-blend-mode:screen" opacity="0.4">
<path d="M36.0339 2.5L17.5898 34.5L27.4663 2.5H36.0339Z" fill="white"/>
</g>
<g style="mix-blend-mode:multiply" opacity="0.3">
<path d="M38.2017 3.7251L35.4541 29.3676L32.8704 20.9951L38.2017 3.7251Z" fill="#2B2A29"/>
</g>
<g style="mix-blend-mode:multiply" opacity="0.3">
<path d="M37.3875 1.5L26.8966 35.5H16.2358C18.0143 35.395 19.7878 35.35 21.5662 35.27L24.2289 35.19L26.6119 35.1345C27.4012 32.3695 28.2155 29.6096 29.0547 26.855L30.3536 22.605L31.6825 18.36C32.5867 15.535 33.5009 12.715 34.4451 9.9C34.9247 8.5 35.3943 7.09 35.8888 5.695C36.3834 4.3 36.868 2.8895 37.3875 1.5Z" fill="#2B2A29"/>
</g>
<g style="mix-blend-mode:multiply" opacity="0.3">
<path d="M25.1483 1.5L14.6574 35.5H3.99658C5.77504 35.395 7.54851 35.35 9.32697 35.27L11.9897 35.19L14.3726 35.1345C15.1619 32.3695 15.9762 29.6096 16.8155 26.855L18.1144 22.605L19.4432 18.36C20.3474 15.535 21.2616 12.715 22.2058 9.9C22.6854 8.5 23.155 7.09 23.6496 5.695C24.1441 4.3 24.6287 2.8895 25.1483 1.5Z" fill="#2B2A29"/>
</g>
<g style="mix-blend-mode:multiply" opacity="0.3">
<path d="M22.2309 1.5C20.942 1.6345 19.6531 1.72 18.3593 1.785C17.7148 1.82 17.0704 1.855 16.4259 1.875C15.8914 1.895 15.3568 1.915 14.8223 1.925C14.6575 2.51 14.4926 3.0905 14.3227 3.675L13.7083 5.7105C13.5084 6.385 13.2836 7.0605 13.0738 7.7355C12.864 8.4105 12.6442 9.0855 12.4194 9.7555C12.1946 10.4255 11.9748 11.1055 11.735 11.7705C11.4952 12.4355 11.2704 13.1105 11.0256 13.7755C10.541 15.1055 10.0365 16.4205 9.48193 17.7255L14.4876 1.5005L22.2309 1.5Z" fill="#2B2A29"/>
</g>
<g style="mix-blend-mode:multiply" opacity="0.3">
<path d="M34.6399 1.5C33.3211 1.6345 32.0022 1.72 30.6833 1.785C30.0239 1.82433 29.3645 1.85433 28.7051 1.875C28.1555 1.895 27.611 1.915 27.0615 1.9295L26.5469 3.715L25.9225 5.795L25.273 7.8645C25.0582 8.56 24.8334 9.2445 24.6036 9.9295C24.3738 10.6145 24.149 11.3045 23.9042 11.9895C23.6594 12.6745 23.4346 13.36 23.1798 14.035C22.6903 15.4 22.1707 16.755 21.6062 18.095L26.7268 1.5H34.6399Z" fill="#2B2A29"/>
</g>
<g style="mix-blend-mode:multiply" opacity="0.3">
<path d="M42.673 35.2646C44.2767 35.2101 45.8753 35.1646 47.4789 35.1301C47.0942 33.9751 46.7195 32.8201 46.3449 31.6601C45.9152 30.3451 45.4956 29.0249 45.086 27.6996C44.2517 25.0601 43.4474 22.4051 42.6481 19.7551L41.4741 15.7646L40.3351 11.7646C39.9654 10.4296 39.5907 9.09512 39.246 7.75512C38.8913 6.4101 38.5266 5.0746 38.2019 3.7251L48.0034 35.5001H37.3477C39.1211 35.3871 40.8996 35.3401 42.673 35.2646Z" fill="#2B2A29"/>
</g>
</g>
<mask id="mask2_226_509" style="mask-type:luminance" maskUnits="userSpaceOnUse" x="3" y="1" width="46" height="35">
<path d="M48.0035 1.5H3.99658V35.5H48.0035V1.5Z" fill="white"/>
</mask>
<g mask="url(#mask2_226_509)">
<path d="M25.1483 1.5L14.6574 35.5H3.99658L9.47684 17.7445C9.48079 17.7388 9.48253 17.7319 9.48184 17.725L14.4875 1.5H25.1483Z" fill="url(#paint6_linear_226_509)"/>
<path d="M37.3878 1.5L26.8969 35.5H16.2361L21.6064 18.095L26.727 1.5H37.3878Z" fill="url(#paint7_linear_226_509)"/>
<path d="M48.0035 35.5001H37.3477L35.4543 29.3701V29.3651L32.8716 20.9951L38.202 3.7251L48.0035 35.5001Z" fill="url(#paint8_linear_226_509)"/>
<g style="mix-blend-mode:screen" opacity="0.4">
<path d="M23.7944 2.5L5.35034 34.5L15.2268 2.5H23.7944Z" fill="white"/>
</g>
<g style="mix-blend-mode:screen" opacity="0.4">
<path d="M36.0341 2.5L17.5901 34.5L27.4665 2.5H36.0341Z" fill="white"/>
</g>
<g style="mix-blend-mode:multiply" opacity="0.3">
<path d="M38.202 3.7251L35.4544 29.3676L32.8706 20.9951L38.202 3.7251Z" fill="#2B2A29"/>
</g>
<g style="mix-blend-mode:multiply" opacity="0.3">
<path d="M37.3878 1.5L26.8969 35.5H16.2361C18.0145 35.395 19.788 35.35 21.5665 35.27L24.2292 35.19L26.6121 35.1345C27.4014 32.3695 28.2157 29.6096 29.055 26.855L30.3539 22.605L31.6827 18.36C32.5869 15.535 33.5011 12.715 34.4453 9.9C34.9249 8.5 35.3945 7.09 35.8891 5.695C36.3837 4.3 36.8682 2.8895 37.3878 1.5Z" fill="#2B2A29"/>
</g>
<g style="mix-blend-mode:multiply" opacity="0.3">
<path d="M25.1483 1.5L14.6574 35.5H3.99658C5.77504 35.395 7.54851 35.35 9.32697 35.27L11.9897 35.19L14.3726 35.1345C15.1619 32.3695 15.9762 29.6096 16.8155 26.855L18.1144 22.605L19.4432 18.36C20.3474 15.535 21.2616 12.715 22.2058 9.9C22.6854 8.5 23.155 7.09 23.6496 5.695C24.1441 4.3 24.6287 2.8895 25.1483 1.5Z" fill="#2B2A29"/>
</g>
<g style="mix-blend-mode:multiply" opacity="0.3">
<path d="M22.2311 1.5C20.9423 1.6345 19.6534 1.72 18.3595 1.785C17.7151 1.82 17.0706 1.855 16.4262 1.875C15.8916 1.895 15.3571 1.915 14.8226 1.925C14.6577 2.51 14.4928 3.0905 14.323 3.675L13.7085 5.7105C13.5087 6.385 13.2839 7.0605 13.0741 7.7355C12.8643 8.4105 12.6444 9.0855 12.4196 9.7555C12.1948 10.4255 11.975 11.1055 11.7352 11.7705C11.4954 12.4355 11.2706 13.1105 11.0258 13.7755C10.5413 15.1055 10.0367 16.4205 9.48218 17.7255L14.4878 1.5005L22.2311 1.5Z" fill="#2B2A29"/>
</g>
<g style="mix-blend-mode:multiply" opacity="0.3">
<path d="M34.6402 1.5C33.3213 1.6345 32.0024 1.72 30.6836 1.785C30.0242 1.82433 29.3647 1.85433 28.7053 1.875C28.1558 1.895 27.6112 1.915 27.0617 1.9295L26.5472 3.715L25.9227 5.795L25.2733 7.8645C25.0585 8.56 24.8337 9.2445 24.6039 9.9295C24.3741 10.6145 24.1492 11.3045 23.9045 11.9895C23.6597 12.6745 23.4349 13.36 23.1801 14.035C22.6905 15.4 22.171 16.755 21.6064 18.095L26.727 1.5H34.6402Z" fill="#2B2A29"/>
</g>
<g style="mix-blend-mode:multiply" opacity="0.3">
<path d="M42.6733 35.2646C44.2769 35.2101 45.8755 35.1646 47.4791 35.1301C47.0945 33.9751 46.7198 32.8201 46.3451 31.6601C45.9155 30.3451 45.4958 29.0249 45.0862 27.6996C44.2519 25.0601 43.4476 22.4051 42.6483 19.7551L41.4743 15.7646L40.3353 11.7646C39.9656 10.4296 39.591 9.09512 39.2463 7.75512C38.8916 6.4101 38.5269 5.0746 38.2022 3.7251L48.0037 35.5001H37.3479C39.1214 35.3871 40.8998 35.3401 42.6733 35.2646Z" fill="#2B2A29"/>
</g>
</g>
<defs>
<linearGradient id="paint0_linear_226_509" x1="12.4968" y1="0.44" x2="12.4968" y2="40.52" gradientUnits="userSpaceOnUse">
<stop stop-color="#8B2B2B" stop-opacity="0.4"/>
<stop offset="0.238" stop-color="#923131" stop-opacity="0.4"/>
<stop offset="0.44" stop-color="#742323" stop-opacity="0.4"/>
<stop offset="0.629" stop-color="#AD2D2D" stop-opacity="0.4"/>
<stop offset="0.81" stop-color="#A73131" stop-opacity="0.4"/>
<stop offset="0.983" stop-color="#992828" stop-opacity="0.4"/>
<stop offset="1" stop-color="#812424" stop-opacity="0.4"/>
</linearGradient>
<linearGradient id="paint1_linear_226_509" x1="26.9592" y1="0.44" x2="26.9592" y2="40.52" gradientUnits="userSpaceOnUse">
<stop stop-color="#8B2B2B" stop-opacity="0.4"/>
<stop offset="0.238" stop-color="#923131" stop-opacity="0.4"/>
<stop offset="0.44" stop-color="#742323" stop-opacity="0.4"/>
<stop offset="0.629" stop-color="#AD2D2D" stop-opacity="0.4"/>
<stop offset="0.81" stop-color="#A73131" stop-opacity="0.4"/>
<stop offset="0.983" stop-color="#992828" stop-opacity="0.4"/>
<stop offset="1" stop-color="#812424" stop-opacity="0.4"/>
</linearGradient>
<linearGradient id="paint2_linear_226_509" x1="47.2972" y1="40.486" x2="28.4414" y2="29.2807" gradientUnits="userSpaceOnUse">
<stop stop-color="#A5A5A5"/>
<stop offset="0.247" stop-color="#D9D9D9"/>
<stop offset="0.75" stop-color="#DFDFDF"/>
<stop offset="0.927083" stop-color="white"/>
<stop offset="1" stop-color="white"/>
</linearGradient>
<linearGradient id="paint3_linear_226_509" x1="14.5724" y1="1.874" x2="14.5724" y2="35.942" gradientUnits="userSpaceOnUse">
<stop/>
<stop offset="0.238"/>
<stop offset="0.44"/>
<stop offset="0.629"/>
<stop offset="0.81"/>
<stop offset="0.983"/>
<stop offset="1"/>
</linearGradient>
<linearGradient id="paint4_linear_226_509" x1="26.8117" y1="1.874" x2="26.8117" y2="35.942" gradientUnits="userSpaceOnUse">
<stop/>
<stop offset="0.238"/>
<stop offset="0.44"/>
<stop offset="0.629"/>
<stop offset="0.81"/>
<stop offset="0.983"/>
<stop offset="1"/>
</linearGradient>
<linearGradient id="paint5_linear_226_509" x1="44.0235" y1="35.9132" x2="28.0297" y2="26.4502" gradientUnits="userSpaceOnUse">
<stop stop-color="#A5A5A5"/>
<stop offset="0.247" stop-color="#D9D9D9"/>
<stop offset="0.75" stop-color="#DFDFDF"/>
<stop offset="0.927083" stop-color="white"/>
<stop offset="1" stop-color="white"/>
</linearGradient>
<linearGradient id="paint6_linear_226_509" x1="14.5724" y1="1.874" x2="14.5724" y2="35.942" gradientUnits="userSpaceOnUse">
<stop stop-color="#FF3232"/>
<stop offset="0.238" stop-color="#FF3232"/>
<stop offset="0.44" stop-color="#FF3232"/>
<stop offset="0.629" stop-color="#FF3232"/>
<stop offset="0.81" stop-color="#FF3232"/>
<stop offset="0.983" stop-color="#FF3232"/>
<stop offset="1" stop-color="#FF3232"/>
</linearGradient>
<linearGradient id="paint7_linear_226_509" x1="26.8119" y1="1.874" x2="26.8119" y2="35.942" gradientUnits="userSpaceOnUse">
<stop stop-color="#FF3232"/>
<stop offset="0.238" stop-color="#FF3232"/>
<stop offset="0.44" stop-color="#FF3232"/>
<stop offset="0.629" stop-color="#FF3232"/>
<stop offset="0.81" stop-color="#FF3232"/>
<stop offset="0.983" stop-color="#FF3232"/>
<stop offset="1" stop-color="#FF3232"/>
</linearGradient>
<linearGradient id="paint8_linear_226_509" x1="44.0238" y1="35.9132" x2="28.03" y2="26.4502" gradientUnits="userSpaceOnUse">
<stop stop-color="#A5A5A5"/>
<stop offset="0.247" stop-color="#D9D9D9"/>
<stop offset="0.75" stop-color="#DFDFDF"/>
<stop offset="0.927083" stop-color="white"/>
<stop offset="1" stop-color="white"/>
</linearGradient>
</defs>
</svg>
