<svg width="15" height="15" viewBox="0 0 15 15" fill="none" xmlns="http://www.w3.org/2000/svg">
<path d="M9.5 5.5C9.19357 4.88713 8.56717 4.5 7.88197 4.5H7C6.17157 4.5 5.5 5.17157 5.5 6C5.5 6.82843 6.17157 7.5 7 7.5H8C8.82843 7.5 9.5 8.17157 9.5 9C9.5 9.82843 8.82843 10.5 8 10.5H7.11803C6.43283 10.5 5.80643 10.1129 5.5 9.5M13.8292 8.34061C13.8664 8.06487 13.8913 7.78548 13.8913 7.5C13.8913 3.97017 11.0292 1.1087 7.5 1.1087C7.21452 1.1087 6.93512 1.13426 6.65938 1.17017C6.02999 0.74713 5.27156 0.5 4.45652 0.5C2.2713 0.5 0.5 2.2713 0.5 4.45652C0.5 5.27217 0.747138 6.03 1.17018 6.65939C1.13366 6.93513 1.1087 7.21452 1.1087 7.5C1.1087 11.0298 3.97017 13.8913 7.5 13.8913C7.78487 13.8913 8.06426 13.8663 8.34 13.8298C8.97 14.2529 9.72783 14.5 10.5435 14.5C12.7281 14.5 14.5 12.7287 14.5 10.5435C14.5 9.72783 14.2523 8.97 13.8292 8.34061Z" stroke="black" stroke-linejoin="round"/>
</svg>
